Patient4_TMGait_0pt4_03_left_15_GRF.mot
version=1
nRows=26
nColumns=19
inDegrees=no
endheader
time	F1x	F1y	F1z	M1x	M1y	M1z	F2x	F2y	F2z	M2x	M2y	M2z	EC1x	EC1y	EC1z	EC2x	EC2y	EC2z
19.37	-12.7608	21.6538	1.5274	-5.0423	-5.423	19.4189	-33.8404	713.2937	-58.3072	277.2683	74.6377	787.3981	-0.0592	0.0182	-0.0073	-0.0462	0.0165	0.9585
19.3839	-8.4475	15.0833	1.1185	-3.5689	-3.7191	13.5875	-29.7637	721.6836	-58.1859	278.9425	73.5663	792.485	-0.0592	0.0182	-0.0073	-0.0462	0.0165	0.9585
19.3979	-4.8773	9.5502	0.74934	-2.331	-2.2764	8.7192	-25.8068	729.7529	-57.8454	280.7125	72.1501	796.9584	-0.0592	0.0182	-0.0073	-0.0462	0.0165	0.9585
19.4118	-2.2202	5.3843	0.45208	-1.4029	-1.1814	5.0924	-22.1713	737.5988	-57.3708	282.6924	70.5249	801.0723	-0.0592	0.0182	-0.0073	-0.0462	0.0165	0.9585
19.4257	-0.41933	2.542	0.24094	-0.77284	-0.43153	2.6366	-18.9182	745.5371	-56.8937	285.0014	68.8593	805.2391	-0.0592	0.0182	-0.0073	-0.0462	0.0165	0.9585
19.4396	0.65402	0.8244	0.10702	-0.39363	0.024759	1.176	-16.0087	753.7922	-56.4962	287.6819	67.2548	809.7162	-0.0592	0.0182	-0.0073	-0.0462	0.0165	0.9585
19.4536	1.1796	-0.063962	0.038133	-0.19506	0.25656	0.43705	-13.3481	762.3086	-56.2295	290.6538	65.7664	814.4394	-0.0592	0.0182	-0.0073	-0.0462	0.0165	0.9585
19.4675	1.327	-0.44679	0.023484	-0.097777	0.32578	0.11914	-10.8354	770.6694	-56.0673	293.6992	64.366	818.9624	-0.0592	0.0182	-0.0073	-0.0462	0.0165	0.9585
19.4814	1.2173	-0.60761	0.04245	-0.028905	0.28673	-0.030298	-8.3835	778.1218	-55.9589	296.4748	62.996	822.502	-0.0592	0.0182	-0.0073	-0.0462	0.0165	0.9585
19.4954	0.97424	-0.80494	0.083446	0.080034	0.18316	-0.27644	-5.9275	783.7298	-55.8079	298.5764	61.558	824.1027	-0.0592	0.0182	-0.0073	-0.0462	0.0165	0.9585
19.5093	0.66859	-1.2274	0.13023	0.28161	0.047705	-0.80682	-3.4375	786.6164	-55.5304	299.6323	59.9699	822.897	-0.0592	0.0182	-0.0073	-0.0462	0.0165	0.9585
19.5232	0.35733	-2.0127	0.17508	0.6139	-0.095888	-1.7749	-0.87751	786.1981	-55.0728	299.3895	58.1771	818.3242	-0.0592	0.0182	-0.0073	-0.0462	0.0165	0.9585
19.5371	0.094179	-3.2268	0.21735	1.0941	-0.22649	-3.2657	1.7788	782.2943	-54.4382	297.7544	56.1832	810.2469	-0.0592	0.0182	-0.0073	-0.0462	0.0165	0.9585
19.5511	-0.091351	-4.8248	0.23842	1.703	-0.30884	-5.2133	4.541	775.1521	-53.6935	294.8047	54.0558	798.962	-0.0592	0.0182	-0.0073	-0.0462	0.0165	0.9585
19.565	-0.12468	-6.6298	0.22573	2.3725	-0.3006	-7.4039	7.4095	765.4591	-52.935	290.7958	51.8924	785.2053	-0.0592	0.0182	-0.0073	-0.0462	0.0165	0.9585
19.5789	0.059369	-8.2335	0.14448	2.9539	-0.13734	-9.3524	10.3737	754.2718	-52.2877	286.1305	49.8202	770.0819	-0.0592	0.0182	-0.0073	-0.0462	0.0165	0.9585
19.5929	0.54464	-8.9567	-0.031881	3.203	0.24763	-10.271	13.4112	742.8075	-51.8471	281.2851	47.9442	754.8395	-0.0592	0.0182	-0.0073	-0.0462	0.0165	0.9585
19.6068	1.4418	-7.7937	-0.35121	2.7614	0.94816	-9.004	16.4661	732.2345	-51.6815	276.7222	46.3539	740.677	-0.0592	0.0182	-0.0073	-0.0462	0.0165	0.9585
19.6207	2.8294	-3.379	-0.85915	1.1472	2.0475	-3.9597	19.4912	723.4224	-51.8161	272.7919	45.0942	728.492	-0.0592	0.0182	-0.0073	-0.0462	0.0165	0.9585
19.6346	4.7805	5.9449	-1.5899	-2.2246	3.6065	6.7813	22.4192	716.7004	-52.2581	269.6342	44.1932	718.6416	-0.0592	0.0182	-0.0073	-0.0462	0.0165	0.9585
19.6486	7.2509	21.9791	-2.5477	-7.986	5.6067	25.3292	25.1448	711.7066	-52.9767	267.1187	43.6518	710.8088	-0.0592	0.0182	-0.0073	-0.0462	0.0165	0.9585
19.6625	10.0293	46.2878	-3.6665	-16.6821	7.8869	53.527	27.5591	707.3491	-53.8801	264.8363	43.419	703.9552	-0.0592	0.0182	-0.0073	-0.0462	0.0165	0.9585
19.6764	12.6601	79.5997	-4.7898	-28.5589	10.0867	92.2518	29.4938	701.9444	-54.7885	262.1557	43.379	696.4765	-0.0592	0.0182	-0.0073	-0.0462	0.0165	0.9585
19.6904	14.3168	120.9177	-5.6116	-43.2406	11.5417	140.4068	30.7607	693.4789	-55.4508	258.3292	43.3531	686.4426	-0.0592	0.0182	-0.0073	-0.0462	0.0165	0.9585
19.7043	13.8207	166.3485	-5.6472	-59.3157	11.2599	193.5235	31.1889	680.0709	-55.6049	252.6664	43.1502	672.0317	-0.0592	0.0182	-0.0073	-0.0462	0.0165	0.9585
19.7182	10.5516	208.8944	-4.2223	-74.2598	8.2701	243.5426	30.6859	660.5669	-55.0609	244.7595	42.6232	652.0932	-0.0592	0.0182	-0.0073	-0.0462	0.0165	0.9585
